<?xml version="1.0"?>
<svg version="1.1" xmlns="http://www.w3.org/2000/svg" width="400px" height="200px" style=""><path fill="#" d="M74.263671875,86.380859375q0-2.59765625,0.890625-3.48828125t2.486328125-0.890625q0.4453125,0,0.9462890625,0.07421875t0.9462890625,0.22265625q2.486328125-0.482421875,4.712890625-0.482421875q3.599609375,0,6.53125,1.26171875q4.712890625,2.00390625,7.79296875,5.9375t4.52734375,9.240234375t1.447265625,10.873046875q0,3.1171875-0.4267578125,6.494140625t-1.6513671875,6.271484375q-1.076171875,2.59765625-2.96875,5.4365234375t-4.2861328125,5.380859375t-5.158203125,4.453125t-5.5849609375,2.5791015625l0,0.296875q0,0.7421875-0.3896484375,1.2060546875t-0.9462890625,0.705078125t-1.2802734375,0.3154296875t-1.3544921875,0.07421875q-0.37109375,0-1.0576171875-0.07421875t-1.3359375-0.2783203125t-1.0947265625-0.5380859375t-0.4453125-0.927734375q0-6.75390625-0.3525390625-13.5263671875t-0.7978515625-13.544921875t-0.7978515625-13.5263671875t-0.3525390625-13.544921875z M81.27734375,84.48828125q0.37109375,3.5625,0.482421875,7.1064453125t0.333984375,7.1064453125q0.59375,9.203125,1.373046875,18.3134765625t0.927734375,18.3134765625q3.5625-2.337890625,6.1044921875-5.34375t4.1748046875-6.53125t2.3935546875-7.4033203125t0.7607421875-7.9970703125q0-2.96875-0.51953125-6.53125t-1.78125-6.865234375t-3.3955078125-5.974609375t-5.3251953125-3.822265625q-0.66796875-0.22265625-1.6142578125-0.37109375t-3.0244140625-0.1484375q-0.22265625,0-0.4453125,0.07421875t-0.4453125,0.07421875z M111.36080078125,124.86328125q0-2.115234375,0.5380859375-4.3603515625t1.70703125-4.044921875t2.9501953125-2.931640625t4.3046875-1.1318359375q1.892578125,0,3.9892578125,0.6494140625t3.8408203125,1.85546875t2.8388671875,2.9501953125t1.0947265625,3.896484375q0,2.59765625-0.9462890625,4.935546875t-2.6533203125,4.1748046875t-3.9892578125,2.89453125t-4.9541015625,1.0576171875q-2.189453125,0-3.822265625-0.7978515625t-2.7275390625-2.1337890625t-1.6328125-3.154296875t-0.5380859375-3.859375z M116.81587890625,124.7890625q0,0.66796875,0.2041015625,1.966796875t0.6123046875,2.5419921875t1.0576171875,2.15234375t1.5771484375,0.8349609375q1.966796875-0.22265625,3.2470703125-1.2802734375t2.078125-2.5791015625t1.11328125-3.302734375t0.3154296875-3.376953125q0-2.041015625-0.7978515625-3.4140625t-2.6162109375-2.2265625q0,0.07421875,0.07421875,0.07421875t0.07421875-0.07421875l-0.927734375-0.22265625q-0.37109375-0.1484375-0.9091796875-0.333984375t-1.0576171875-0.81640625q-1.447265625,0.51953125-2.2451171875,1.3359375t-1.2060546875,1.9853515625t-0.5009765625,2.8017578125t-0.0927734375,3.93359375z M139.4774609375,123.416015625q0-2.671875,0.6865234375-5.3623046875t2.1337890625-4.82421875t3.6923828125-3.4697265625t5.2880859375-1.3359375q1.298828125,0,2.857421875,0.3154296875t2.8759765625,1.001953125t2.2265625,1.78125t0.9091796875,2.6904296875q0,1.001953125-0.51953125,1.3359375t-1.373046875,0.333984375l-0.259765625-0.37109375t-0.7236328125-0.9462890625t-0.9833984375-1.224609375t-1.001953125-1.0947265625q-1.521484375-1.521484375-2.857421875-1.6328125l-0.296875,0q-1.11328125,0-2.078125,0.66796875q-1.076171875,0.81640625-1.9111328125,2.30078125t-1.3916015625,3.154296875t-0.8720703125,3.376953125t-0.3154296875,2.8203125q0,1.521484375,0.3525390625,3.4697265625t1.1875,3.6923828125t2.115234375,2.931640625t3.2841796875,1.1875q1.818359375,0,3.302734375-0.890625t2.8388671875-1.9853515625t2.6533203125-1.966796875t2.671875-0.8720703125q0.59375,0,1.2060546875,0.1484375t0.6123046875,0.779296875l0,0.22265625q-0.66796875,1.744140625-2.263671875,3.080078125t-3.5810546875,2.3193359375t-4.119140625,1.4658203125t-3.8037109375,0.482421875q-3.1171875,0-5.4736328125-1.0205078125t-3.9150390625-2.8017578125t-2.3564453125-4.2861328125t-0.7978515625-5.4736328125z"/><path fill="#9083d5" d="M175.263671875,90.9453125q0-1.744140625,0.0927734375-3.451171875t0.3154296875-3.376953125q0.1484375-0.853515625,1.3173828125-1.224609375t1.9482421875-0.37109375l0.890625,0.07421875q1.076171875,0.1484375,2.1708984375-0.1484375t2.1708984375-0.296875q2.5234375,0,5.640625,0.556640625t5.8447265625,1.892578125t4.5830078125,3.5068359375t1.85546875,5.3623046875t-1.9296875,5.9560546875t-4.861328125,4.861328125t-6.30859375,3.2841796875t-6.197265625,1.1875q0.296875,7.162109375,0.8349609375,14.212890625t1.8369140625,14.1015625l0.07421875,0.482421875q0,0.51953125-0.4638671875,0.853515625t-1.0947265625,0.5380859375t-1.2802734375,0.2783203125t-1.0576171875,0.07421875q-0.927734375,0-2.2451171875-0.3525390625t-1.6142578125-1.3916015625q-0.853515625-3.265625-1.3359375-7.1806640625t-0.705078125-8.1826171875t-0.3154296875-8.5908203125t-0.0927734375-8.4423828125l0-8.349609375q0-1.373046875-0.037109375-2.857421875t-0.037109375-3.005859375z M182.27734375,84.93359375q0,5.083984375,0.111328125,10.1494140625t0.259765625,10.1494140625q2.189453125-0.4453125,4.4716796875-1.5771484375t4.119140625-2.6904296875t2.96875-3.5439453125t1.1318359375-4.1748046875q0-1.966796875-0.9833984375-3.525390625t-2.5419921875-2.671875q-1.521484375-1.076171875-3.451171875-1.669921875q-1.70703125-0.51953125-3.33984375-0.51953125l-0.408203125,0z M209.68892578125,124.158203125q0-2.5234375,0.6865234375-4.861328125t2.0595703125-4.1748046875t3.4326171875-2.931640625t4.7685546875-1.0947265625q1.669921875,0,3.6923828125,0.5009765625t3.8037109375,1.484375t2.96875,2.5048828125t1.1875,3.48828125q0,0.927734375-0.3154296875,1.41015625t-1.2802734375,0.482421875l-0.408203125-0.07421875q1.076171875,2.89453125,1.85546875,5.9375t1.521484375,6.0859375q0.296875,0.59375,0.4453125,1.0576171875t0.1484375,0.9091796875q0,0.59375-0.333984375,0.9833984375t-0.8720703125,0.5751953125t-1.11328125,0.259765625t-1.0205078125,0.07421875q-1.595703125,0-2.3935546875-0.556640625t-1.150390625-1.521484375t-0.4267578125-2.1708984375t-0.296875-2.4306640625q-0.4453125,1.447265625-1.1689453125,2.8203125t-1.70703125,2.4677734375t-2.3193359375,1.744140625t-3.005859375,0.6494140625q-2.44921875,0-4.119140625-1.41015625t-2.6904296875-3.4697265625t-1.484375-4.3974609375t-0.4638671875-4.341796875z M214.95845703125,123.638671875q0,1.373046875,0.185546875,2.89453125t0.6123046875,3.005859375t1.0947265625,2.8017578125t1.669921875,2.3193359375q1.818359375-1.966796875,2.6904296875-4.787109375t1.55859375-5.4365234375t1.55859375-4.490234375t2.6904296875-1.8740234375q1.150390625,0,1.9296875,0.408203125q-0.37109375-0.927734375-1.224609375-1.7998046875t-1.9111328125-1.595703125t-2.189453125-1.1875t-2.1337890625-0.4638671875q-0.296875,0-0.6865234375,0.0927734375t-0.6123046875,0.0185546875q-1.521484375,0.4453125-2.5048828125,1.5400390625t-1.595703125,2.5791015625t-0.8720703125,3.04296875t-0.259765625,2.931640625z M240.3290234375,100.59375q0-0.51953125,1.11328125-0.890625t2.5234375-0.6123046875t2.7275390625-0.3525390625t1.7998046875-0.185546875q0-1.001953125,0.07421875-2.0224609375t0.408203125-1.818359375t1.0576171875-1.2802734375t2.0224609375-0.482421875q1.076171875,0,1.6328125,0.259765625t1.1875,1.076171875q0.1484375,0.4453125,0.1484375,0.853515625l0,1.2431640625t-0.07421875,1.2802734375q1.373046875-0.1484375,2.7275390625-0.3525390625t2.7275390625-0.2041015625q1.001953125,0,1.373046875,0.037109375t0.7421875,0.890625q0.296875,0.853515625-0.7236328125,1.298828125t-2.44921875,0.66796875t-2.8388671875,0.333984375t-1.70703125,0.111328125q-0.4453125,6.3828125-0.9091796875,12.654296875t-0.4638671875,12.728515625q0,2.89453125,0.185546875,5.974609375t1.0390625,5.826171875q0.22265625,0.853515625,0.7421875,1.595703125t0.51953125,1.595703125q0,0.51953125-0.408203125,0.81640625t-0.9833984375,0.5009765625t-1.150390625,0.2412109375t-0.9462890625,0.037109375q-2.337890625,0-3.5625-1.744140625t-1.7626953125-4.1748046875t-0.5751953125-4.9912109375t-0.037109375-4.15625q0-3.265625,0.1298828125-6.6796875t0.3154296875-6.75390625t0.51953125-6.53125t0.779296875-5.9375q-1.298828125,0.1484375-2.5419921875,0.333984375t-2.5419921875,0.185546875q-0.296875,0-0.7978515625-0.037109375t-0.9462890625-0.185546875t-0.7607421875-0.408203125t-0.3154296875-0.7421875z"/></svg>
